# xmcd CD database file
#
# Track frame offsets:
#	150
#	17513
#	27174
#	45634
#	56543
#	68259
#	82450
#	97378
#	106830
#	119775
#	131650
#	146303
#	165090
#	175131
#	189557
#	198535
#	216442
#	224738
#
# Disc length: 3251 seconds
#
# Revision: 0
# Processed by: cddbd v1.5.2PL0 Copyright (c) Steve Scherf et al.
# Submitted via: CDex 1.73
#
DISCID=0c0cb112
DTITLE=Tony Bennet and Lady Gaga - Cheek To Cheek
DYEAR=2014
DGENRE=Jazz
TTITLE0=Anything Goes
TTITLE1=Cheek To Cheek
TTITLE2=Don't Wait Too Long
TTITLE3=I Can't Give You Anything But Love
TTITLE4=Nature Boy
TTITLE5=Goody Goody
TTITLE6=Ev'ry Time We Say Goodbye
TTITLE7=Firefly
TTITLE8=I Won't Dance
TTITLE9=They All Laughed
TTITLE10=Lush Life
TTITLE11=Sophisticated Lady
TTITLE12=Let's Face The Music And Dance
TTITLE13=But Beautiful
TTITLE14=It Don't Mean A Thing (If It Ain't Got That Swing)
TTITLE15=On A Clear Day (You Can See Forever)
TTITLE16=Bewitched, Bothered and Bewildered
TTITLE17=The Lady Is A Tramp
EXTD=YEAR: 2014
EXTT0=
EXTT1=
EXTT2=
EXTT3=
EXTT4=
EXTT5=
EXTT6=
EXTT7=
EXTT8=
EXTT9=
EXTT10=
EXTT11=
EXTT12=
EXTT13=
EXTT14=
EXTT15=
EXTT16=
EXTT17=
PLAYORDER=
